<svg width="211" height="38" viewBox="0 0 211 38" fill="none" xmlns="http://www.w3.org/2000/svg">
<g clip-path="url(#clip0_1719_12223)">
<path d="M3.14494 26.3864C1.04777 24.263 0 21.6452 0 18.5347C0 15.4243 1.04777 12.8082 3.14494 10.6831C5.24047 8.55962 7.8024 7.49707 10.8291 7.49707C13.8558 7.49707 16.4177 8.55962 18.5133 10.6831C20.6088 12.8065 21.6582 15.4243 21.6582 18.5347V19.9931H4.37335C4.70673 21.7421 5.47039 23.1167 6.66431 24.1168C7.85824 25.1169 9.2476 25.6162 10.8291 25.6162C12.7719 25.6162 14.3271 25.1301 15.4948 24.1579C16.0219 23.7686 16.4801 23.2825 16.8694 22.6995H21.4513C20.8683 24.061 20.1325 25.2138 19.2441 26.1565C16.9662 28.4343 14.1629 29.5724 10.8307 29.5724C7.80405 29.5724 5.24211 28.5099 3.14658 26.3864H3.14494ZM4.58192 16.4523H17.0779C16.8283 15.0646 16.1681 13.8838 15.099 12.9116C14.0299 11.9394 12.606 11.4533 10.8291 11.4533C9.32971 11.4533 7.99619 11.9049 6.83018 12.8065C5.66417 13.7098 4.91366 14.925 4.58028 16.4507L4.58192 16.4523Z" fill="white"/>
<path d="M23.3242 7.91406H27.9061L32.4881 25.2005H35.1962L39.7781 7.91406H44.36L38.5283 29.1568H29.1559L23.3242 7.91406Z" fill="white"/>
<path d="M49.1723 26.3864C47.0751 24.263 46.0273 21.6452 46.0273 18.5347C46.0273 15.4243 47.0751 12.8082 49.1723 10.6831C51.2678 8.55962 53.8297 7.49707 56.8564 7.49707C59.8831 7.49707 62.4451 8.55962 64.5406 10.6831C66.6361 12.8065 67.6855 15.4243 67.6855 18.5347V19.9931H50.3991C50.7324 21.7421 51.4961 23.1167 52.69 24.1168C53.8839 25.1169 55.2733 25.6162 56.8548 25.6162C58.7976 25.6162 60.3528 25.1301 61.5205 24.1579C62.0476 23.7686 62.5058 23.2825 62.8951 22.6995H67.477C66.894 24.061 66.1582 25.2138 65.2698 26.1565C62.9919 28.4343 60.1886 29.5724 56.8564 29.5724C53.8297 29.5724 51.2678 28.5099 49.1723 26.3864ZM50.6093 16.4523H63.1053C62.8556 15.0646 62.1954 13.8838 61.1263 12.9116C60.0572 11.9394 58.6334 11.4533 56.8564 11.4533C55.3571 11.4533 54.0235 11.9049 52.8575 12.8065C51.6915 13.7098 50.941 14.925 50.6076 16.4507L50.6093 16.4523Z" fill="white"/>
<path d="M71.4336 29.1564V7.91365H75.8069V11.0372H76.0155C76.321 10.4542 76.766 9.89915 77.349 9.37034C78.6251 8.26016 80.1261 7.70508 81.8472 7.70508H84.3467V11.8699H81.6386C79.9438 11.8699 78.5495 12.4052 77.4525 13.4727C76.3555 14.5418 75.8069 15.9509 75.8069 17.6999V29.1547H71.4336V29.1564Z" fill="white"/>
<path d="M85.5938 7.91406H90.1757L94.7576 24.992H97.0486L102.048 7.91406H106.63L97.8828 37.0709H93.3009L95.8004 29.1568H91.4271L85.5954 7.91406H85.5938Z" fill="white"/>
<path d="M123.891 11.8699L126.861 7.912H129.361V3.33008H133.734V7.912H140.19V11.8699H133.734V25.1985H140.399V29.1547H129.361V11.8682H123.891V11.8699Z" fill="#B9D043"/>
<path d="M146.043 26.3864C143.946 24.263 142.898 21.6452 142.898 18.5347C142.898 15.4243 143.946 12.8082 146.043 10.6831C148.141 8.55962 150.701 7.49707 153.728 7.49707C156.754 7.49707 159.316 8.55962 161.412 10.6831C163.509 12.8065 164.557 15.4243 164.557 18.5347V19.9931H147.27C147.604 21.7421 148.367 23.1167 149.561 24.1168C150.755 25.1169 152.143 25.6162 153.726 25.6162C155.669 25.6162 157.224 25.1301 158.392 24.1579C158.919 23.7686 159.377 23.2825 159.766 22.6995H164.348C163.765 24.061 163.029 25.2138 162.141 26.1565C159.863 28.4343 157.06 29.5724 153.728 29.5724C150.701 29.5724 148.139 28.5099 146.043 26.3864ZM147.48 16.4523H159.976C159.727 15.0646 159.067 13.8838 157.997 12.9116C156.928 11.9394 155.504 11.4533 153.728 11.4533C152.228 11.4533 150.895 11.9049 149.729 12.8065C148.563 13.7098 147.812 14.925 147.479 16.4507L147.48 16.4523Z" fill="#B9D043"/>
<path d="M170.095 26.4508C168.068 24.3684 167.055 21.7309 167.055 18.5367C167.055 15.3425 168.068 12.705 170.095 10.6226C172.121 8.54022 174.649 7.49902 177.675 7.49902C181.063 7.49902 183.826 8.78985 185.964 11.3731C186.88 12.5671 187.519 13.8447 187.88 15.2045H183.298C183.105 14.5115 182.743 13.8858 182.216 13.3307C181.134 12.081 179.62 11.4569 177.675 11.4569C175.952 11.4569 174.517 12.1089 173.364 13.4145C172.211 14.7201 171.635 16.428 171.635 18.5383C171.635 20.6487 172.211 22.3566 173.364 23.6622C174.517 24.9678 175.952 25.6198 177.675 25.6198C179.676 25.6198 181.244 24.9957 182.382 23.746C182.881 23.1909 183.257 22.5668 183.507 21.8721H187.88C187.519 23.2878 186.88 24.5802 185.964 25.7463C183.853 28.3016 181.091 29.5777 177.675 29.5777C174.649 29.5777 172.121 28.5365 170.095 26.4541V26.4508Z" fill="#B9D043"/>
<path d="M191.422 29.1568V0H195.795V10.8291H196.004C196.337 10.274 196.851 9.71893 197.546 9.16385C199.045 8.05367 200.753 7.49695 202.668 7.49695C205.306 7.49695 207.353 8.2606 208.812 9.78791C210.27 11.3152 210.998 13.5372 210.998 16.4522V29.1568H206.624V16.8694C206.624 15.0087 206.214 13.6423 205.396 12.767C204.576 11.8917 203.32 11.4548 201.627 11.4548C199.934 11.4548 198.538 12.0312 197.441 13.1841C196.344 14.337 195.795 15.8429 195.795 17.7036V29.1584H191.422V29.1568Z" fill="#B9D043"/>
<path d="M122.86 7.91406H127.442L118.695 37.0709H114.113L122.86 7.91406Z" fill="#B9D043"/>
<path d="M112.454 7.91406H117.036L108.289 37.0709H103.707L112.454 7.91406Z" fill="#B9D043"/>
</g>
<defs>
<clipPath id="clip0_1719_12223">
<rect width="211" height="37.0709" fill="white"/>
</clipPath>
</defs>
</svg>
