<svg width="25" height="25" viewBox="0 0 25 25" fill="none" xmlns="http://www.w3.org/2000/svg">
<path d="M12.6187 13.2805C12.5487 13.2705 12.4587 13.2705 12.3787 13.2805C10.6187 13.2205 9.21875 11.7805 9.21875 10.0105C9.21875 8.20047 10.6787 6.73047 12.4987 6.73047C14.3087 6.73047 15.7787 8.20047 15.7787 10.0105C15.7687 11.7805 14.3787 13.2205 12.6187 13.2805Z" stroke="#B9D043" stroke-width="1.5" stroke-linecap="round" stroke-linejoin="round"/>
<path d="M19.2417 19.8796C17.4617 21.5096 15.1017 22.4996 12.5017 22.4996C9.90172 22.4996 7.54172 21.5096 5.76172 19.8796C5.86172 18.9396 6.46172 18.0196 7.53172 17.2996C10.2717 15.4796 14.7517 15.4796 17.4717 17.2996C18.5417 18.0196 19.1417 18.9396 19.2417 19.8796Z" stroke="#B9D043" stroke-width="1.5" stroke-linecap="round" stroke-linejoin="round"/>
<path d="M12.5 22.5C18.0228 22.5 22.5 18.0228 22.5 12.5C22.5 6.97715 18.0228 2.5 12.5 2.5C6.97715 2.5 2.5 6.97715 2.5 12.5C2.5 18.0228 6.97715 22.5 12.5 22.5Z" stroke="#B9D043" stroke-width="1.5" stroke-linecap="round" stroke-linejoin="round"/>
</svg>
